<svg data-v-423bf9ae="" xmlns="http://www.w3.org/2000/svg" viewBox="0 0 282.18366891153164 60" class="font"><!----><!----><!----><g data-v-423bf9ae="" id="5e2ab268-2f3a-4b11-80b3-f39e494fa755" fill="#F6575E" transform="matrix(6.1224488604322,0,0,6.1224488604322,0.0000024735554688959382,-4.285714427340487)"><path d="M3.91 4.76L3.91 4.76Q3.70 5.01 3.35 5.11L3.35 5.11Q3.54 5.18 3.67 5.27Q3.79 5.36 3.91 5.49L3.91 5.49Q3.92 5.56 3.93 5.61Q3.93 5.67 3.93 5.74L3.93 5.74L3.93 9.38Q3.93 9.84 3.60 10.17Q3.28 10.50 2.83 10.50L2.83 10.50L0 10.50L0 0.70L2.83 0.70Q3.28 0.70 3.60 1.03Q3.93 1.36 3.93 1.82L3.93 1.82L3.93 4.48Q3.93 4.55 3.93 4.62Q3.92 4.69 3.91 4.76ZM2.95 9.38L2.95 5.74Q2.95 5.61 2.83 5.61L2.83 5.61L0.98 5.61L0.98 9.52L2.83 9.52Q2.95 9.52 2.95 9.38L2.95 9.38ZM2.95 4.48L2.95 1.82Q2.95 1.68 2.83 1.68L2.83 1.68L0.98 1.68L0.98 4.62L2.83 4.62Q2.95 4.62 2.95 4.48L2.95 4.48ZM4.84 10.50L4.84 4.62L5.82 4.62L5.82 10.50L4.84 10.50ZM4.84 0.70L7.67 0.70Q8.12 0.70 8.45 1.03Q8.78 1.36 8.78 1.82L8.78 1.82L8.78 4.48Q8.78 4.94 8.45 5.27Q8.12 5.60 7.67 5.60L7.67 5.60L7.32 5.60L8.78 10.50L7.73 10.50L6.03 4.62L7.67 4.62Q7.80 4.62 7.80 4.48L7.80 4.48L7.80 1.82Q7.80 1.68 7.67 1.68L7.67 1.68L5.82 1.68L5.82 4.62L4.84 1.68L4.84 0.70ZM13.03 10.50L11.79 2.67L11.07 7.20L11.79 7.20L11.79 8.18L10.92 8.18L10.54 10.50L9.55 10.50L9.93 8.18L9.55 8.18L9.55 7.20L10.08 7.20L11.12 0.70L12.46 0.70L14.03 10.50L13.03 10.50ZM17.51 0.70L18.49 0.70L18.49 10.50L17.51 10.50L17.51 10.50L17.49 10.50L15.55 4.03L15.55 10.50L14.57 10.50L14.57 0.70L15.55 0.70L15.55 0.71L17.51 7.18L17.51 0.70ZM19.40 0.70L22.19 0.70Q22.65 0.70 22.98 1.04Q23.31 1.37 23.31 1.83L23.31 1.83L23.31 9.39Q23.31 9.84 22.98 10.17Q22.65 10.50 22.19 10.50L22.19 10.50L19.40 10.50L19.40 4.62L20.38 4.62L19.40 1.68L19.40 0.70ZM22.33 9.39L22.33 1.83Q22.33 1.69 22.19 1.69L22.19 1.69L20.38 1.69L20.38 9.52L22.19 9.52Q22.33 9.52 22.33 9.39L22.33 9.39ZM27.99 2.86L27.01 2.86L27.01 1.81Q27.01 1.67 26.87 1.67L26.87 1.67L25.34 1.67Q25.20 1.67 25.20 1.81L25.20 1.81L25.20 4.47Q25.20 4.56 25.28 4.59L25.28 4.59L26.87 4.59Q27.34 4.59 27.66 4.92Q27.99 5.25 27.99 5.71L27.99 5.71L27.99 9.39Q27.99 9.81 27.72 10.12Q27.45 10.43 27.05 10.50L27.05 10.50L25.16 10.50Q24.75 10.43 24.49 10.12Q24.22 9.81 24.22 9.39L24.22 9.39L24.22 8.34L25.20 8.34L25.20 9.39Q25.20 9.53 25.34 9.53L25.34 9.53L26.87 9.53Q27.01 9.53 27.01 9.39L27.01 9.39L27.01 5.71Q27.01 5.61 26.92 5.59L26.92 5.59L25.34 5.59Q24.88 5.59 24.55 5.26Q24.22 4.93 24.22 4.47L24.22 4.47L24.22 1.81Q24.22 1.39 24.49 1.08Q24.75 0.77 25.16 0.70L25.16 0.70L27.05 0.70Q27.45 0.77 27.72 1.08Q27.99 1.39 27.99 1.81L27.99 1.81L27.99 2.86ZM29.88 0.70L29.88 10.50L28.90 10.50L28.90 0.70L29.88 0.70ZM30.79 10.50L30.79 4.62L31.77 4.62L31.77 10.50L30.79 10.50ZM30.79 0.70L33.61 0.70Q34.06 0.70 34.39 1.03Q34.72 1.36 34.72 1.82L34.72 1.82L34.72 4.48Q34.72 4.94 34.39 5.27Q34.06 5.60 33.61 5.60L33.61 5.60L33.26 5.60L34.72 10.50L33.67 10.50L31.98 4.62L33.61 4.62Q33.74 4.62 33.74 4.48L33.74 4.48L33.74 1.82Q33.74 1.68 33.61 1.68L33.61 1.68L31.77 1.68L31.77 4.62L30.79 1.68L30.79 0.70ZM36.61 0.70L36.61 10.50L35.63 10.50L35.63 0.70L36.61 0.70ZM40.43 0.71L41.41 0.71L41.41 9.39Q41.41 9.81 41.15 10.12Q40.89 10.43 40.49 10.50L40.49 10.50L38.46 10.50Q38.05 10.43 37.79 10.12Q37.52 9.81 37.52 9.39L37.52 9.39L37.52 0.71L38.50 0.71L38.50 9.39Q38.50 9.53 38.64 9.53L38.64 9.53L40.31 9.53Q40.43 9.53 40.43 9.39L40.43 9.39L40.43 0.71ZM46.09 2.86L45.11 2.86L45.11 1.81Q45.11 1.67 44.97 1.67L44.97 1.67L43.44 1.67Q43.30 1.67 43.30 1.81L43.30 1.81L43.30 4.47Q43.30 4.56 43.39 4.59L43.39 4.59L44.97 4.59Q45.44 4.59 45.77 4.92Q46.09 5.25 46.09 5.71L46.09 5.71L46.09 9.39Q46.09 9.81 45.82 10.12Q45.56 10.43 45.15 10.50L45.15 10.50L43.26 10.50Q42.85 10.43 42.59 10.12Q42.32 9.81 42.32 9.39L42.32 9.39L42.32 8.34L43.30 8.34L43.30 9.39Q43.30 9.53 43.44 9.53L43.44 9.53L44.97 9.53Q45.11 9.53 45.11 9.39L45.11 9.39L45.11 5.71Q45.11 5.61 45.02 5.59L45.02 5.59L43.44 5.59Q42.98 5.59 42.65 5.26Q42.32 4.93 42.32 4.47L42.32 4.47L42.32 1.81Q42.32 1.39 42.59 1.08Q42.85 0.77 43.26 0.70L43.26 0.70L45.15 0.70Q45.56 0.77 45.82 1.08Q46.09 1.39 46.09 1.81L46.09 1.81L46.09 2.86Z"></path></g><!----><!----></svg>